<svg width="512" height="512" viewBox="0 0 512 512" fill="none" xmlns="http://www.w3.org/2000/svg">
  <circle cx="256" cy="256" r="240" stroke="url(#paint0_linear)" stroke-width="12" />
  <path d="M220 160H340V200H290V400C290 422.091 272.091 440 250 440C227.909 440 210 422.091 210 400V380H250V400C250 400 250 400 250 400C250 400 250 400 250 400V200H220V160Z" fill="url(#paint0_linear)" />
  <ellipse cx="256" cy="256" rx="200" ry="80" stroke="#00D4FF" stroke-width="4" transform="rotate(0 256 256)" opacity="0.5" />
  <ellipse cx="256" cy="256" rx="200" ry="80" stroke="#00D4FF" stroke-width="4" transform="rotate(60 256 256)" opacity="0.5" />
  <ellipse cx="256" cy="256" rx="200" ry="80" stroke="#00D4FF" stroke-width="4" transform="rotate(120 256 256)" opacity="0.5" />
  <defs>
    <linearGradient id="paint0_linear" x1="160" y1="160" x2="352" y2="440" gradientUnits="userSpaceOnUse">
      <stop stop-color="#00D4FF" />
      <stop offset="1" stop-color="#7C3AED" />
    </linearGradient>
  </defs>
</svg>
